<?xml version="1.0" encoding="UTF-8"?>
<svg id="Layer_1" data-name="Layer 1" xmlns="http://www.w3.org/2000/svg" viewBox="0 0 59.21 63.85">
  <defs>
    <style>
      .cls-1 {
        fill: #fff;
        fill-rule: evenodd;
      }
    </style>
  </defs>
  <path class="cls-1" d="M13.88,57.12c.32.19.56.12.79.12,2.77-.06,5.53-.09,8.29-.19,1.89-.07,3.68.33,5.45.89.21.07.41.16.6.26.83.42,1.41,1.05,1.44,2.02.04.98-.48,1.68-1.31,2.09-1.51.76-3.11,1.35-4.8,1.39-4.96.11-9.93.29-14.89-.02-1.92-.12-3.8-.5-5.63-1.09-.94-.3-1.83-.71-2.58-1.36-1.5-1.31-1.66-3.24-.38-4.76,5.31-6.34,10.7-12.62,15.72-19.2.75-.99,1.55-1.94,2.52-2.73.41-.33.84-.62,1.36-.76.92-.25,1.56.19,1.64,1.14.06.73-.11,1.43-.33,2.12-.59,1.79-1.54,3.41-2.5,5.02-1.45,2.44-3.16,4.69-4.95,6.89-.12.14-.3.25-.3.48.15.11.26-.01.36-.07,8.04-4.5,15.51-9.75,21.82-16.54,7.42-7.97,13.05-17.06,17.11-27.14.47-1.17.97-2.33,1.49-3.48.3-.66.68-1.27,1.27-1.72,1.05-.81,2.19-.53,2.74.67.34.73.4,1.51.4,2.3-.01,1.71-.33,3.38-.73,5.03-1.13,4.62-3.22,8.81-5.53,12.93-4.81,8.59-10.98,16.06-18.53,22.35-5.45,4.54-11.35,8.45-17.54,11.91-.94.53-1.94.96-3,1.47"/>
</svg>