<?xml version="1.0" encoding="UTF-8"?>
<svg id="Layer_1" data-name="Layer 1" xmlns="http://www.w3.org/2000/svg" viewBox="0 0 99.68 31.03">
  <defs>
    <style>
      .cls-1 {
        fill: #f5f5f5;
      }
    </style>
  </defs>
  <g id="hzH8FV">
    <g>
      <path class="cls-1" d="M49.48,0l1.94,1.72c.73,1.24.99,2.61,2.06,3.72,1.48-2.38.38-4.71,4.26-4.25,1.19.14.99.71,1.3,1.58.1.27.4.57.43.74.05.3-.31,1.33-.54,1.6-.74.88-1.43.13-1.81.4-.68.49.92,2.86,1.02,3.6.13.9-.05,2.45-.15,3.37.12.41,1.08-.01,1.32,1.26.05.25-.09.51-.03.72.23.83,2.42,3.04,2.41,3.97,0,.36-.49.74-.8.54l-2.58-4.15-.64-.02c-.62,1.43.33,2.34.49,3.49.29,2.15.09,4.62-.18,6.77-.16,1.32-.75,2.67-.41,4.02.43.71,2.95.12,2.81,1.36l-4.17.36c-.95-.03-.43-.69-.42-1.28.02-.69.05-1.55,0-2.22-.1-1.31-.62-2.22,0-3.65l-4.52,4.08c-.02,1.31.7,1.92,1.8,2.47-.44.72-1.8.43-2.37,0-.36-.27-.47-.75-.76-1.11s-.86-.48-.91-.96c-.07-.69,1.15-1.61,1.57-2.28.64-1.03.69-1.92,1.82-2.78.4-.31,1.29-.44,1.35-1.04.04-.36-.43-1.49-.49-2.06-.07-.66.11-1.61-.06-2.16s-1.07-.72-1.16-1.74c-.14-1.53,1.16-2.19,1.18-3.06,0-.4-.35-.85-.44-1.24-.36-1.56-.7-2.9-.35-4.5.08-.36.46-.73.43-1.04-.01-.14-1.16-1.9-1.32-2.07-.29-.29-.65-.34-.93-.61-.74-.72-1.51-2.51-1.46-3.56h.34Z"/>
      <path class="cls-1" d="M84.69,18.03c1.53.05,4.95-.12,5.76,1.47.48.94.03,1.8.01,2.69-.03,1.39-.22,4.41.01,5.62.2,1.07,2.26,1.22,2.48,2.12s-2.31.35-2.73.34c-.96-.03-1.92.06-2.87-.02-.37-.12-.28-.59-.28-.89-.03-.26-.75-.11-.85.15,1.27,1.87-2.14,2.02-1.19-.09-1.23-.41-2.35-.73-3.64-.33-1.14.35-.09.68-.14,1.23-.08.97-1.94.85-1.84-.13.03-.3.46-.55.34-.95h-1.02s.34.28.34.28l-.16.84c-1.78.49-1.74-.53-1.3-1.8,1.41-.73,3.15-.62,4.67-1.03.1-1.62-.57-3.07-.32-4.74h-.68s.51.59.51.59c-.21.4-1.29.34-1.36,0l.51-.59c-.45.05-1.01-.08-1.44,0-.39.08-.51.48-.85.51-.46.05-1.54-.16-1.71-.67-.4-1.23.5-2.58-.26-3.83l.08-.27.62-.26-.33-7.78c1.22-1.06,1.47.88,1.8,1.73.1.26-.1.46.38.37.02-1.1-.1-2.46.33-3.5.41-.98,1.84-1.29,2.02-2.06.2-.87-.35-1.51,0-2.55.73-2.21,3.96-1.09,3.97.22,0,.32-.36.22-.36.35,0,.28.19,1.83.15,1.91-.03.06-.34.1-.47.3-.46.72-.01,1-1.38,1.01.41.57,1.46.79,1.88,1.23.68.71,1.09,2.47,1.38,3.42.96.02,1.87.36,2.8.52.71.12,1.37-.3,1.7.54,1.01-.75,1.71.02,2.53,0,.62-.02,1.5-.53,2.19-.51l.09-1.01-3.14-1.21,1.63-6.63,3.23.68c-.03.99-.46,1.99-.52,2.97-.07,1.19.13,4.09.39,5.24.18.82.8.45,1.41.79.55.31.67.95.59,1.54h-1.53c-.05,3.6.07,7.21,0,10.81-.01.81-.29,1.65-.19,2.56.07.63.46.97.35,1.6h-4.76v-.85s.85,0,.85,0v-14.12l-7.48-.17v-.85c-1.47.31-1.52-.67-2.21-1.62-.47-.17,0,.32,0,.34v4.51ZM79.25,18.88h-1.02c.39.86.38,1.62.34,2.55l1.02-.34-.34-2.21ZM87.75,22.45c-1.07.88-2.3-.31-3.57,0-.1.1.07,2.32,0,2.8-.11.66-.86,1.32-.48,2.29,1.1.14,2.29.5,3.38.63.18.02.3.11.43-.09l.25-5.62Z"/>
      <path class="cls-1" d="M17.02,26.85c-.19-1.4-1.19-2.14-2.4-2.7-.19.25,1.93,4.6,1.86,5.69s-1.5.91-2.21.52c-.52-.96.26-1.96-.09-2.97-.21-.6-2.01-2.67-2.54-3.24-.35-.38-1.01-.61-1.26-1.12-.44-.87.09-1.55-1.15-2.25-.74-.42-1.72.79-2.1,1.42.46.85,1.33,1.79,1.5,2.76.19,1.16-.22,3.5.07,4.35.17.51,1.22.38,1.6.79.28.45-.18.74-.56.82-1.16.26-2.44,0-3.62.04.02-.65-.03-1.31,0-1.95.04-.81.46-2.75.34-3.4-.08-.42-.49-.59-.82-.4-.05.03-.17.41-.36.57-.99.83-2.04,1.59-3,2.46-.32.7,1.23,1.48.94,2.38C2.23,31.1-.02,28.7,0,27.98c.02-.85,2.37-2.35,2.87-3.08-1.26-2.28-2.39-3.04-.49-5.41,1.72-2.15,4.41-3.58,6.69-5.05,1.12-.73,2.42-2.35,3.98-1.71,1.22.5,1.48,1.9,2.22,2.87.02.24-.64,1.4-.82,1.51-.44.27-.95-.37-1.16.19l-.11,3.46c.19.42,3.12,2.22,3.74,2.73.99.81,2.32,1.89,1.63,3.32l-1.52.05Z"/>
      <path class="cls-1" d="M22.53,30.44c-.37-.03-1.31-.13-1.66-.21-1.22-.26-.07-1.34.14-2.16.44-1.7-.16-3.8,1.59-4.88-.92-1.12-.94-2.39-1.38-3.69-.37-1.08-1.09-1.37-.78-2.89,1.69-2.5,2.13-5.4,4.57-7.34.51-.4,1.18-.68,1.67-1.05.76-.58,2.58-2.34,3.35-2.39.42-.03,1.89.41,2.12.74.05.07.5,1.26.49,1.33,0,.36-.5.59-.5.68,0,.11,1.19.87.33,1.7-.78.76-1.51-.28-2.1-.21-.11.01-1.35.74-1.39.81-.19.32.01.82-.16,1.2-.14.3-.79.39-.91.79-.13.45-.3,2.35-.04,2.7.44.6,5.04,2.99,2.22,3.74-1.26.33-.81-.82-1.37-1.36-.42-.4-1.47-.5-1.97-.93-.33-.13-.4.72-.39.9.06,1.92,1.32,3.01,1.5,4.11.32,1.95-1.15,6.2.52,7.47.69.52,1.5.26,2.04.51s.5.86-.25.94c-1.41.16-2.9-.29-4.33-.2-.37-1.06-.07-2.2-.2-3.28-.09-.71-.63-1.7-.65-2.41-.02-.64.33-1.55.15-2.28l-1.84,3.51c-.47.83-.87,2.27.05,2.96.58.43,2.08.1,1.97,1.18-.92-.05-1.89.07-2.81,0Z"/>
      <path class="cls-1" d="M42.17,6.97c.08,1.31,1.16,2.49,1.01,3.81-.04.36-.3.7-.32,1.05-.1,1.89,3.24,4.37,3.06,6.96-.05.71-.42,1.45-1.21,1.21-1.31-.41-.13-1.04-.03-1.76.17-1.19-1.54-2.71-2.26-3.61-.14,0-1.02,2.46-1.06,2.67-.37,1.92,1.16,2.62,1.92,4.12s.55,1.86.58,3.32c0,.42.43,3.28.55,3.54.6,1.22,3.5,1.2,3.19,2.24-.17.59-1.69.07-2.13.08-.52,0-1.93.45-2.22.03.26-1.81-1.45-3.25-1.57-4.91-.03-.44.16-.76.15-1.14-.03-1.16-.55-2.27-1.63-2.81-.43.1-.72,2.26-1.1,2.77-.55.74-2.05,1.72-2.73,2.59-.5.64-.74,1.02-.31,1.85.23.45,1.99,1.4,1.41,1.82-.88.63-1.71-.49-2.33-.9-.45-.29-1.4-.3-1.32-1.06.45-.68.87-1.35,1.11-2.13.19-.61.11-1.31.45-1.93.3-.55.95-.76,1.34-1.21.8-.93,1.03-3.58.84-4.75s-1.08-1.04-.59-2.99c.43-1.68.11-.93.07-2.29-.03-1.04.59-4.87.99-5.83.19-.45,1.11-1.09,1.31-1.58.14-.35.06-.72.17-1.02.67-1.8,2.57-3.64,4.27-1.7.08.09.84,2.02.86,2.21.17,1.19-1.55,1.54-2.49,1.36Z"/>
      <path class="cls-1" d="M70.23,16.24c.2.96,1.74,3.04,2.13,4.33.73,2.4.06,5.31,1.12,7.55.58,1.22,1.67.73,2.77.63l.25.39c-.02.75-3.16,1.54-3.87,1.45-.28-.53-.13-1.13-.27-1.68-.25-.94-1.22-1.95-1.54-3.22-.27-1.08-.11-2.02-.29-2.94-.17-.83-1.22-2.23-1.41-3.19-.14,0-.07,1.13-.13,1.41-.42,2.11-1.17,2.75-2.09,4.37-.49.85-1.28,3.11-.74,3.99.32.51,1.77.81,1.68,1.21-.14.14-.26.34-.46.4-.16.05-2.41-.34-2.75-.42-2.08-.51-.46-1.44-.26-2.26.29-1.24.14-2.47.62-3.8.28-.78,1.33-1.98,1.4-2.48.06-.42-.14-1.1-.09-1.65.09-.92.47-1.99.35-2.89-.1-.77-.93-1.24-.97-2.23-.04-1.04.68-1.83.79-2.69.27-2.15-.99-5.31.13-7.35.28-.51.91-.66,1.02-1.02.18-.58-.15-1.11-.14-1.66.02-1.72,2.13-3.1,3.1-1.23.54,1.04.34,1.9-.02,2.94-2.29.12-.41,2.15-.22,3.26.16.97,0,2.62.25,3.5.05.18,1.27,1.68,1.49,1.91.5.52,2.52,1.84,2.56,2.21.02.15.01.3-.09.42-.65.56-.89-.43-1.24-.69l-3.11-1.7c.13.92-.18,2.29,0,3.15Z"/>
    </g>
  </g>
</svg>