<?xml version="1.0" encoding="UTF-8"?>
<svg id="Layer_5" data-name="Layer 5" xmlns="http://www.w3.org/2000/svg" xmlns:xlink="http://www.w3.org/1999/xlink" viewBox="0 0 100 100">
  <defs>
    <style>
      .cls-1 {
        fill: none;
      }

      .cls-2 {
        fill: #fff;
      }

      .cls-3 {
        fill: url(#Pattern_4);
      }
    </style>
    <pattern id="Pattern_4" data-name="Pattern 4" x="0" y="0" width="100" height="100" patternUnits="userSpaceOnUse" viewBox="0 0 100 100">
      <g>
        <rect class="cls-1" y="0" width="100" height="100"/>
        <g>
          <path class="cls-2" d="M96.06,90.69l.28-.14.16.32c-.08,8.91.1,17.83-.52,26.76-.06.1-1.92-.15-2.21-.15-.68-.01-1.38.09-2.06.12-.11-.03-.05-.12-.05-.18-.02-.57.14-1.47.21-2.07.23-1.99.55-4,.86-5.99.96-6.23,2.12-12.45,3.33-18.66Z"/>
          <path class="cls-2" d="M44.27,91.38c.2.02.4.02.6.05.94.16,1.78.89,2.08,1.8.82,2.44-1.86,4.52-4.01,3.15l-3.59,5c1.06,1.02,1.41,2.48.92,3.87-.03.1-.23.46-.19.51l3.9,2.8c.07.02.42-.24.54-.29,1.53-.6,3.04,1.09,2.24,2.53-1.01,1.81-3.72.87-3.36-1.2.02-.09.1-.24.05-.31l-3.9-2.8h-.06c-.43.46-.97.79-1.57.98l.73,4.5c2.03.05,3.36,2.25,2.33,4.05s-3.41,1.86-4.55.26c-1.06-1.48-.4-3.55,1.31-4.14l-.74-4.51c-.65,0-1.27-.15-1.84-.43l-4.76,6.62c.18.27.34.54.44.86.91,2.98-3.13,4.87-4.83,2.33-.16-.24-.27-.51-.37-.78-.02-.23-.1-.48-.12-.7,0-.07.02-.26.03-.34.21-1.98,2.49-3.09,4.16-1.98l4.71-6.57c-1.04-.92-1.41-2.43-.98-3.75.07-.21.18-.4.25-.61l-3.94-2.82c-.21.09-.39.26-.63.33-2.08.61-3.25-2.21-1.48-3.27,1.5-.9,3.2.6,2.63,2.21l3.9,2.8h.07c1.11-1.17,2.9-1.46,4.32-.71l3.66-5.06c-.89-1.19-.71-2.87.47-3.79.25-.19.64-.42.94-.5l.61-.1Z"/>
        </g>
        <g>
          <path class="cls-2" d="M73.43,66.9c-.26-.07-.82-.03-.84-.32.03-.82-.26-1.72-.06-2.5,2.92-2.67,5.35-5.72,4.4-9.87-.15-.68-.61-2.21-1.1-2.74-.19-.2-.47-.09-.7-.03-2.15.57-3.74,3.58-4.23,5.41-.4,1.49-.4,2.89-.31,4.44.01.24.13.69.05.88-.08.2-1.36,1.06-1.65,1.3-2.72,2.28-4.62,4.87-4.05,8.52.38,2.43,2.22,4.82,4.93,5.7.48.15,1.12.17,1.57.3.07.02.15.03.19.11-.08,1.12.45,2.79-.26,3.72-.32.42-1.15.86-1.73.52.71-.62,1.09-1.38.79-2.32-.54-1.68-3.13-1.82-3.84-.4-.97,1.94.7,4.48,3.22,4.64,2.83.18,3.6-2.49,3.58-4.56,0-.33-.16-1.52-.02-1.72,1.98-.47,3.41-1.72,4.09-3.43.58-1.44.57-3.5-.26-4.97-.75-1.31-2.22-2.25-3.76-2.67ZM74.58,58.49c-.38.7-1.48,2-2.16,2.45-.05.03-.13.1-.2.06-.36-1.8.13-3.69,1-5.24.34-.62.84-1.29,1.54-1.62.95,1.36.53,3.08-.16,4.35ZM71.01,67.11c-.44.25-.92.45-1.32.77-1.34,1.05-1.5,2.63-.8,4.16.09.19.64,1.13.82,1.16.07,0,.11-.06.11-.12.02-.14-.1-.48-.09-.68.03-.73.65-1.62,1.32-2,.06-.04.12-.08.2-.04.05,1.62.27,3.3.29,4.92,0,.7.11.83-.81.61-1.89-.46-3.48-1.88-3.8-3.61s.41-3.4,1.51-4.71c.68-.81,1.58-1.37,2.37-2.07l.15.04.05,1.58ZM72.89,70.08c.07-.35.84-.01,1.1.09,2.35.98,2.03,4.37.2,5.39-.13.07-.85.37-.96.25l-.34-5.73Z"/>
          <g>
            <path class="cls-2" d="M96.06-9.31l.28-.14.16.32c-.08,8.91.1,17.83-.52,26.76-.06.1-1.92-.15-2.21-.15-.68-.01-1.38.09-2.06.12-.11-.03-.05-.12-.05-.18-.02-.57.14-1.47.21-2.07.23-1.99.55-4,.86-5.99.96-6.23,2.12-12.45,3.33-18.66Z"/>
            <path class="cls-2" d="M87.3,36.06c1.51-1.28,2.48-2.39,2.42-4.34-.03-.81-.32-1.61-.26-2.42.24-3.23,4.95-4.25,6.23-1.26s-3.12,5.6-5.39,6.78l-.13.15-2.7,1.4-.16-.32Z"/>
            <path class="cls-2" d="M91.84,26.05l-.21-7.67c1.37-.33,2.75-.17,4.09.02l.1.19-1.56,7.49c-.75-.24-1.64-.41-2.43-.03Z"/>
          </g>
          <g>
            <path class="cls-2" d="M33.81,52.72l.09.24-.06.35c-1.24,2.83-2.38,5.71-3.67,8.52-.19.21-.38.22-.63.14-.39-.11-1.42-.56-1.78-.75-.3-.17-.43-.38-.33-.72l2.59-6.1-6.08-2.61c-.27-.12-.39-.38-.32-.67.06-.25.69-1.74.83-1.94.17-.25.43-.31.72-.21l8.35,3.55.29.21Z"/>
            <path class="cls-2" d="M14.06,53.25c.14-.09.31-.13.47-.09.26.06,1.71.68,1.94.83.22.13.33.4.26.65l-2.6,6.16,6.07,2.59c.28.13.39.4.31.7-.11.38-.58,1.46-.77,1.82-.13.23-.26.36-.54.36-2.88-1.12-5.71-2.41-8.57-3.6-.36-.19-.44-.41-.32-.8l3.56-8.37c.04-.09.1-.18.19-.24Z"/>
            <path class="cls-2" d="M24.06,67.04c-.08.18-.24.27-.42.32s-1.08.13-1.27.12c-.25-.01-.49-.21-.52-.47l-1.79-18.62c0-.32.18-.51.49-.58.17-.04,1.15-.13,1.29-.11.23.03.44.22.47.46l1.79,18.6c0,.09,0,.21-.04.29Z"/>
          </g>
          <path class="cls-2" d="M44.27-8.62c.2.02.4.02.6.05.94.16,1.78.89,2.08,1.8.82,2.44-1.86,4.52-4.01,3.15l-3.59,5c1.06,1.02,1.41,2.48.92,3.87-.03.1-.23.46-.19.51l3.9,2.8c.07.02.42-.24.54-.29,1.53-.6,3.04,1.09,2.24,2.53-1.01,1.81-3.72.87-3.36-1.2.02-.09.1-.24.05-.31l-3.9-2.8h-.06c-.43.46-.97.79-1.57.98l.73,4.5c2.03.05,3.36,2.25,2.33,4.05s-3.41,1.86-4.55.26c-1.06-1.48-.4-3.55,1.31-4.14l-.74-4.51c-.65,0-1.27-.15-1.84-.43l-4.76,6.62c.18.27.34.54.44.86.91,2.98-3.13,4.87-4.83,2.33-.16-.24-.27-.51-.37-.78-.02-.23-.1-.48-.12-.7,0-.07.02-.26.03-.34.21-1.98,2.49-3.09,4.16-1.98l4.71-6.57c-1.04-.92-1.41-2.43-.98-3.75.07-.21.18-.4.25-.61l-3.94-2.82c-.21.09-.39.26-.63.33-2.08.61-3.25-2.21-1.48-3.27,1.5-.9,3.2.6,2.63,2.21l3.9,2.8h.07c1.11-1.17,2.9-1.46,4.32-.71l3.66-5.06c-.89-1.19-.71-2.87.47-3.79.25-.19.64-.42.94-.5l.61-.1Z"/>
        </g>
      </g>
    </pattern>
  </defs>
  <rect class="cls-3" width="100" height="100"/>
</svg>