<?xml version="1.0" encoding="UTF-8"?>
<svg id="React" xmlns="http://www.w3.org/2000/svg" viewBox="0 0 88.96 78.15">
  <defs>
    <style>
      .cls-1 {
        fill: #000;
      }
    </style>
  </defs>
  <path class="cls-1" d="M36.85,59.71c-.88.12-1.05,1.06-1.93.7-.42-.18-1.94-1.62-1.92-2.1.03-.52,1.88-2.03,2.4-2.06.46-.03.71.76,1.22.78l5.74.12.23-4.28c-3.83-1.74-5.81-5.79-7.15-9.56-1.46.57-3.09.99-4.64,1.21-10.39,1.46-11.56-5.54-6.78-13.03,1.1-1.72,2.41-3.29,3.71-4.84-.94-1.18-1.99-2.26-2.86-3.5-2.45-3.45-5.63-9.64-1.64-13.1,3.22-2.79,8.7-1.26,12.33-.11.27-1.32.88-2.71,1.5-3.91,4.9-9.42,11.8-6.96,15.59,1.6.15.34.77,2.19.87,2.26.23.16,1.56-.44,1.93-.54,3.74-1.03,9.22-1.86,11.49,2.19,1.98,3.54-.86,8.75-2.94,11.72-.84,1.19-1.79,2.29-2.76,3.38-.04.22,1.21,1.49,1.44,1.77,2.47,3.09,5.82,8.18,4.72,12.31-1.48,5.54-9.84,4.12-13.82,2.61l-.11.09c-1.29,3.7-3.3,7.74-7.07,9.39l.2,4.34c.62.1,1.26-.1,1.84-.12,1.16-.03,2.83.17,3.9,0,.53-.08.82-.78,1.22-.75.63.26,2.25,1.44,2.36,2.08.09.53-1.64,2.01-2.15,2.11-.71.14-.97-.76-1.31-.76h-4.52v11.33c-.15,1.75-.6,3.38-1.43,4.93-1.34,2.48-2.17,3.14-3.79.41-1.06-1.79-1.59-3.82-1.7-5.89-.19-3.53.15-7.23,0-10.77-1.3.13-2.93-.18-4.18,0ZM51.08,10.94c-.75-2.62-3.23-8.15-6.41-8.26-3.55-.12-5.82,5.42-6.76,8.2,1.45.59,2.86,1.29,4.25,2.01.42.22,2,1.27,2.29,1.29.35.02,2.13-1.14,2.61-1.4,1.28-.67,2.65-1.4,4.02-1.84ZM34.67,12.4c-3.35-1.22-11.25-3.32-10.71,2.73.17,1.91,1.77,4.7,2.88,6.28.84,1.21,1.91,2.27,2.71,3.49l3.55-2.86c.27-3.25.8-6.47,1.58-9.63ZM55.91,22.07c1.24.79,2.32,1.8,3.38,2.82l1.77-2.02c1.81-2.27,5.28-7.58,3.4-10.4-1.2-1.81-4.28-1.45-6.14-1.16-1.37.21-2.66.75-3.99,1.08.79,3.18,1.19,6.43,1.59,9.68ZM41.93,15.74l-4.63-2.45c-.33.02-1.42,5.64-1.39,6.36l6.02-3.91ZM51.86,13.29c-1.39.71-3.13,1.27-4.43,2.1-.08.05-.43.28-.37.36l6.02,3.91-1.23-6.36ZM53.29,22.91c-2.03-1.36-3.96-2.87-6.01-4.2-.64-.41-1.77-1.24-2.4-1.5-.17-.07-.3-.17-.49-.08-3.05,1.79-5.9,3.88-8.79,5.89l.05,7.43c2.73,2.14,5.64,4.03,8.64,5.77l.35.04c2.98-1.77,5.91-3.63,8.62-5.79l.03-7.56ZM33,28.24v-3.01l-1.78,1.51,1.78,1.51ZM55.88,25.23v3.01c.29-.27,1.68-1.29,1.68-1.62l-1.68-1.4ZM34.79,40.85c-.97-2.99-1.4-6.16-1.58-9.3l-3.6-2.97c-.97,1.12-1.99,2.2-2.84,3.42-1.55,2.22-4.57,7.58-1.51,9.61,2.21,1.47,7.13,0,9.52-.76ZM59.3,28.58l-3.51,2.97c-.2,3.12-.74,6.19-1.46,9.23,1.32.65,3.05,1.09,4.53,1.28,9.92,1.27,5.65-7.2,2.16-11.64-.21-.27-1.53-1.87-1.71-1.84ZM37.13,39.96l4.68-2.18-5.91-4.07,1.23,6.25ZM51.86,40.07c.25-.74,1.32-5.96,1.12-6.25l-5.8,3.96,4.68,2.29ZM51.08,42.42c-2.31-.75-4.43-1.98-6.51-3.22-1.37.76-2.75,1.52-4.16,2.2-.75.36-1.64.63-2.36.99-.12.06-.15,0-.15.2,0,.36,1.09,2.68,1.33,3.15,2.02,3.84,5.23,6.91,8.83,2.54,1.38-1.67,2.33-3.82,3.02-5.85ZM44.71,53.36h-.42c-.11.76-.6,1.36.55,1.21l-.12-1.21ZM44.94,57.15c.09-.51-.24-1.04-.79-.85l-.1.85h.89ZM45.61,59.82h-2.34v3.12l2.29-2.12.05-1.01ZM45.72,62.84l-.62.44-1.84,1.85v2.18l2.46-2.29v-2.18ZM45.72,71.82c.14-1.51-.1-3.21,0-4.74l-2.35,2.2c-.38,1.98.12,3.95,1.01,5.73.29.21.76-1.04.83-1.23.21-.55.45-1.37.5-1.95Z"/>
  <path class="cls-1" d="M17.27,27.91c-.06-.06-.67.33-.77.4-.76.52-1.77,1.38-2.46,2-1.81,1.63-3.45,3.55-5.02,5.41,3.85-.49,7.72,2.2,9.58,5.44.44.77,1.3,2.47.89,3.3-.3.6-1.23.73-1.71.31-.34-.3-.96-2.03-1.3-2.6-1.83-3.02-5.07-4.63-8.6-4.06-.76.12-1.95.68-2.5.71-.47.03-.91-.27-1-.74-.08-.43.91-2.16,1.12-2.8,1.34-4.06.62-9.09-3.03-11.69-.52-.37-1.89-.93-2.15-1.2-.99-1.04.65-1.73,1.22-2.22,2.9-2.51,4.19-7.02,1.67-10.27-.49-.63-1.5-1.13-1.32-1.99.24-1.1,2.03-.45,2.77-.25,7.53,2.04,13.81,8.75,16.38,15.99.12.35.48,1.23.48,1.54,0,.51-1.02,1.57-1.32,2.14-1.36,2.51-1.63,6.56-.69,9.25.32.93,1.24,1.81-.07,2.6-1.16.7-1.94-1.22-2.24-2.08-1-2.77-.72-6.39.08-9.18ZM17.71,22.33c-2.32-5-6.29-9.38-11.38-11.61.83,2.41.76,4.92-.28,7.25l-1.28,2.12c4.45-.76,9.08-.14,12.94,2.23ZM17.27,24.78c-1.18-.55-2.3-1.22-3.54-1.65-2.85-.98-5.89-1-8.84-.58l.84.78c2.47,2.75,3.05,6.48,2.4,10.05,1.98-2.44,4.13-4.79,6.64-6.69.62-.47,1.87-1.1,2.34-1.57.11-.11.21-.15.17-.33Z"/>
  <path class="cls-1" d="M84.42,38.59c-.51.5-1.88-.21-2.53-.36-3.94-.88-7.47.67-9.47,4.15-.6,1.05-.78,2.92-2.29,2.58-1.93-.44.34-4.03.99-4.88,2.06-2.68,5.28-4.65,8.75-4.42-2.05-2.45-4.22-5.02-6.82-6.91-.14-.1-1.15-.81-1.22-.73.75,2.44.92,5.19.39,7.7-.22,1.04-1.27,4.8-2.91,3.35-.93-.83.16-2.18.43-3.15.75-2.72.39-6.48-1.06-8.94-.37-.63-1.14-1.19-1.1-1.92.04-.65.93-2.65,1.25-3.34,2.87-6.31,8.31-11.92,15.08-13.94.87-.26,3.44-1.21,3.19.5-.09.59-1.07,1.25-1.45,1.79-2.26,3.19-1.12,7.45,1.64,9.91.38.34,1.13.72,1.4,1.05,1.11,1.4-1.48,1.92-2.34,2.58-3.67,2.78-4.24,8.23-2.59,12.29.29.73,1.35,1.99.66,2.68ZM84.33,20.09c-1.58-2.01-2.46-4.49-2.23-7.08.07-.79.47-1.53.5-2.29-4.88,2.32-8.87,6.47-11.1,11.38.86-.33,1.65-.79,2.51-1.12,2.29-.86,4.59-1.18,7.04-1.23l3.29.34ZM84,22.44c-3.13-.29-5.99-.24-8.98.78-.28.09-3.73,1.51-3.51,1.79,2.77,1.45,5.32,3.72,7.42,6.03.58.64,1.08,1.39,1.63,2.05.1.12.11.23.32.18-.63-3.2-.09-6.96,2.01-9.54.13-.16,1.26-1.15,1.11-1.29Z"/>
  <path class="cls-1" d="M43.69,21.69c4.97-.6,7.86,5.28,4.21,8.68s-9.51-.14-8.24-5c.47-1.79,2.16-3.45,4.03-3.67ZM42.75,28.54c1.37,1.38,3.87.59,4.26-1.29.45-2.13-1.75-3.9-3.71-2.82-1.54.85-1.8,2.86-.55,4.11Z"/>
</svg>