<?xml version="1.0" encoding="UTF-8"?>
<svg id="Layer_1" data-name="Layer 1" xmlns="http://www.w3.org/2000/svg" viewBox="0 0 56.02 85.4">
  <path d="M28.32.01c5.52,5.85,12.3,10.44,18.18,15.29,3.81,3.14,2.85,4.64,4.83,7.62,1.65,2.49,6.33,1.47,4.1,6.49-1.54,3.46-4.62,3.85-7.69,5.35-.54-2.93-3.99-4.13-6.51-4.94-3.06-.98-6.65-.33-7.33-4.3-2.15,1.97-13.96,7.89-14.57,9.93-.66,2.21,1.05,4.27,3.32,4.16,2.75-.13,6.81-4.51,10.38-5.31,15.3-3.44,25.01,14.86,15.5,26.38-2.23,2.71-16.4,11.91-19.91,13.41-2.74,1.17-5.18,1.48-8.16,1.27,0,0,3.33,2.82,9.62,2.41l-1.6-3.21c6.03,2.28,12.77,2.01,18.85,0,0,0-2.55,2.76-4.03,3.78-3.89,2.67-9.58,6.68-12.41,7.08l.8-2.81c-8.18,1.52-16.82-1.37-22.26-7.64v2.81c-3.64-3.04-5.77-7.32-6.22-12.06l-2,1.61c-1.03-3.92-.3-8.12,1.6-11.65l-2.81.8c.96-4.69,4.71-7.94,8.42-10.65-2.75-2.77-3.34-6.9-3.61-10.65-2.46-.32-4.49,3.29-4.33,3.26-.03-2.29.92-5.13,2.98-8.01.8-1.12,5.44-6.31,5.44-6.31-.39-1.67-4.87-1.93-4.87-1.93,2.93-2.75,7.24-4.88,12.26-4.12-1.46-2.52-2.19-3.16-4.35-5.26,3.43-.23,7.81.69,10.81,2.04l1.32-.54-4.19-7.69s2.99.65,4.44,1.27c1.23.52,5.69,2.99,7.23,4.24l1.33-.26S27.92-.41,28.32.01ZM54.5,26.78c-1.02-.68-4.22-2.22-4.79-3.04s-.21-1.97-.68-2.94c-1.21-2.53-6.42-6.27-9.61-8.81-2.16-1.72-5.06-3.84-7.13-5.72l2.8,6.86c-.53.18-3.89.88-3.89.88,0,0-5.3-4.34-8.64-5.35.75,1.24,3.63,6.35,3.63,6.35l-3.6,1.57s-1.67-1.12-3.42-1.62c-1.25-.36-2.62-.62-3.92-.69,2.58,2.97,2.8,4.37,2.8,4.37-6.77,4.03-9.91,7.56-15.57,15.83,0,0,3.27-2.42,4.33-.08-1.83,9.62,8.3,18.47,17.65,15.44,3.08-1,13.18-9.19,14.56-8.98,1.65.25,4.21,3.26,4.92,4.76,2.08,4.37,1.2,8.56-2.43,11.66-1.78,1.52-15.71,10.44-17.33,10.77-8.17,1.67-14.62-5.13-12.54-13.17.85,1.27,6.55,2.16,6.8,2.43.12.13-.18,1.64.39,2.63.44.76,2.02,1.6,2.93,1.31l15.43-9.69c1.1-1.61.51-4.3-1.47-4.93-3.38-1.08-6.81,3.21-10.06,4.43-6.15,2.32-11.26.3-16.22-3.41-8.92,12.21-.07,27.86,15.23,26.13,2.89-.33,19.26-10.54,21.66-12.87,7.89-7.66,4.39-22.66-6.59-25.14-8.85-1.99-14.55,6.09-21.82,9.39-6.24-2.91-8-11.47-2.67-16.2,2.28-2.03,13.07-8.86,15.91-10.18,2.33-1.08,4.11-.94,6.55-.47-.69,1.73-2.2,3.07-2.39,5.07-.08.82.34,3.16.87,3.68.45.44,6.73,1.56,8.33,2.3s2.84,1.96,4.01,3.23c2.84-.54,5.8-2.67,5.97-5.78ZM14.85,19.19c-3.56-.13-5,.39-8.03,2.5,2.77.44,3.06,1.35,3.06,1.35,0,0,1.1-.97,2.35-1.92.99-.76,2.62-1.93,2.62-1.93ZM6.42,49.63c-.68-.67-4.05,4.02-3.61,4.42l1.96-.04,1.64-4.38ZM32.89,78.96c-4.15.88-9.08.15-12.85-1.79-1.81-.93-4.33-2.43-6.15-3.48-6.17-3.54-10.22-9.92-9.48-17.23-1.96,1.76-2.14,5.08-2,7.64l2.4-.8c-.32,3.76.59,7.53,3.01,10.45l.8-2.81c4.65,8.69,15.21,12.22,24.49,9.7.51,1.05-.14,2.53-.14,2.53l9.14-5.79c-3.39.29-6.7.64-10.02-.41l.8,2.01Z"/>
  <path d="M47.33,23.5c-2.96-.22-4.91-1.06-4.41-4.42,2.16.5,4.09,2.16,4.41,4.42Z"/>
</svg>