<?xml version="1.0" encoding="UTF-8"?><svg id="Layer_2" xmlns="http://www.w3.org/2000/svg" viewBox="0 0 92.09 61.75"><defs><style>.cls-1{stroke:#fff;stroke-width:9px;}.cls-1,.cls-2{fill:none;stroke-linecap:round;stroke-linejoin:round;}.cls-2{stroke:#495d83;stroke-width:4px;}</style></defs><path class="cls-1" d="M27.7,24.17c-.56-.68-3.14-3.77-6.92-3.49-7.25.55-9.22,6.21-9.17,10.75.07,5.26,5.65,9.58,11.08,9.61,24.87.15,31.49-26.63,31.49-26.63l.45,26.29c2.71.86,16.46-26.49,16.46-26.49l.2,26.48"/><path class="cls-1" d="M87.59,7.61c-.51-.77-2.06-3.08-4.81-3.11-2.58-.03-5.27,2.82-5.27,4.81l-.12,47.94"/><path class="cls-1" d="M4.5,47.39h83.05"/><path class="cls-2" d="M27.67,23.97c-.56-.68-3.14-3.77-6.92-3.49-7.25.55-9.22,6.21-9.17,10.75.07,5.26,5.65,9.58,11.08,9.61,24.87.15,31.49-26.63,31.49-26.63l.45,26.29c2.71.86,16.46-26.49,16.46-26.49l.2,26.48"/><path class="cls-2" d="M87.57,7.41c-.51-.77-2.06-3.08-4.81-3.11-2.58-.03-5.27,2.82-5.27,4.81l-.12,47.94"/><path class="cls-2" d="M4.48,47.19h83.05"/></svg>